<svg width="20" height="20" viewBox="0 0 20 20" fill="none" xmlns="http://www.w3.org/2000/svg">
<path d="M6.16245 3.12495C6.49657 1.79395 8.20982 0.512451 10.0001 0.512451C11.7903 0.512451 13.5036 1.79395 13.8377 3.12495H14.3992C15.2964 3.12491 16.1625 3.45386 16.8335 4.04952C17.5045 4.64518 17.9338 5.46619 18.0402 6.35712L19.0792 15.0654C19.1406 15.58 19.0922 16.1017 18.9373 16.5962C18.7824 17.0907 18.5244 17.5468 18.1804 17.9343C17.8363 18.3218 17.414 18.632 16.9414 18.8444C16.4687 19.0568 15.9564 19.1666 15.4382 19.1666H4.56195C4.04375 19.1666 3.53142 19.0568 3.05876 18.8444C2.5861 18.632 2.16383 18.3218 1.81979 17.9343C1.47575 17.5468 1.21776 17.0907 1.06283 16.5962C0.907897 16.1017 0.85954 15.58 0.920947 15.0654L1.95953 6.35712C2.06585 5.46619 2.49516 4.64518 3.16616 4.04952C3.83716 3.45386 4.70328 3.12491 5.60053 3.12495H6.16245V3.12495ZM7.63553 3.12495H12.3646C11.9938 2.52958 11.0116 1.88745 10.0001 1.88745C8.98853 1.88745 8.00678 2.52958 7.63507 3.12495H7.63553ZM5.60053 4.49995C5.03972 4.49993 4.49836 4.70556 4.07898 5.07789C3.6596 5.45022 3.39131 5.96341 3.3249 6.52028L2.28632 15.2286C2.24798 15.5502 2.27822 15.8762 2.37504 16.1852C2.47186 16.4942 2.63307 16.7791 2.84804 17.0213C3.06301 17.2635 3.32686 17.4573 3.6222 17.5901C3.91755 17.7229 4.23767 17.7916 4.56149 17.7916H15.4382C15.7621 17.7916 16.0822 17.723 16.3776 17.5902C16.673 17.4575 16.9369 17.2637 17.1519 17.0215C17.367 16.7793 17.5282 16.4943 17.6251 16.1853C17.7219 15.8762 17.7522 15.5502 17.7138 15.2286L16.6748 6.52028C16.6084 5.96341 16.3401 5.45022 15.9207 5.07789C15.5013 4.70556 14.96 4.49993 14.3992 4.49995H5.60053V4.49995ZM5.71053 11.3919C5.67219 11.3101 5.65033 11.2216 5.6462 11.1314C5.64207 11.0412 5.65575 10.951 5.68645 10.8661C5.71716 10.7812 5.76429 10.7031 5.82517 10.6364C5.88604 10.5697 5.95945 10.5156 6.04122 10.4773C6.12298 10.439 6.2115 10.4171 6.30172 10.413C6.39193 10.4088 6.48208 10.4225 6.56701 10.4532C6.65194 10.4839 6.72999 10.5311 6.7967 10.5919C6.86341 10.6528 6.91748 10.7262 6.95582 10.808C7.4884 11.9437 8.68603 12.7041 10.0019 12.7041C11.3169 12.7041 12.5122 11.9437 13.0452 10.808C13.1233 10.6439 13.2631 10.5174 13.4342 10.4561C13.6052 10.3949 13.7935 10.4038 13.958 10.4809C14.1225 10.5581 14.2498 10.6972 14.312 10.8679C14.3742 11.0386 14.3663 11.227 14.2901 11.3919C13.5306 13.0107 11.8499 14.0791 10.0019 14.0791C8.15299 14.0791 6.46999 13.0103 5.71099 11.3919H5.71053Z" fill="black" stroke="black" stroke-width="0.5"/>
</svg>
