<svg width="40" height="40" viewBox="0 0 40 40" fill="none" xmlns="http://www.w3.org/2000/svg">
<path d="M13.889 6.38139C13.889 3.00333 16.6175 0.274902 19.9955 0.274902C23.3736 0.274902 26.102 3.00333 26.102 6.38139C26.102 12.1631 19.9955 12.8127 19.9955 16.5805C19.9955 12.8127 13.889 12.1631 13.889 6.38139ZM34.9369 16.1907L34.6121 16.1258C34.2873 16.0608 33.9625 16.0608 33.6377 15.9959C33.4428 15.9959 33.1829 15.9959 32.9231 16.0608C29.2202 16.1258 24.5429 17.555 22.5291 16.5805C24.9327 17.7498 26.4918 23.5965 29.8049 26.26L29.8698 26.3249L30.0647 26.5198C30.1297 26.5198 30.1297 26.5848 30.1947 26.5848C30.2596 26.6497 30.3246 26.6497 30.3895 26.7147C30.5844 26.8446 30.8443 26.9745 31.0392 27.1045C33.9625 28.4687 37.4055 27.2344 38.8347 24.3111C40.1989 21.3878 38.9646 17.9447 36.0413 16.5156C35.7165 16.4506 35.3267 16.3207 34.9369 16.1907ZM3.94976 16.5805C1.02644 17.9447 -0.207853 21.4527 1.15636 24.376C2.52058 27.2994 6.02856 28.5336 8.95188 27.1694C9.21173 27.0395 9.40662 26.9096 9.6015 26.7796C9.66647 26.7147 9.73143 26.7147 9.79639 26.6497C9.86136 26.6497 9.86135 26.5848 9.92632 26.5848L10.1212 26.3899L10.1862 26.3249C13.4993 23.6614 15.0584 17.8148 17.462 16.6455C15.3832 17.6199 10.7708 16.1907 7.06796 16.1258C6.80811 16.1258 6.61322 16.0608 6.35337 16.0608C6.02856 16.0608 5.70375 16.1258 5.37893 16.1907L5.05412 16.2557V16.3207C4.66434 16.3207 4.27457 16.4506 3.94976 16.5805Z" fill="url(#paint0_linear)"/>
<path d="M13.4993 35.1599H26.4918C25.3225 37.4986 22.8539 39.1226 19.9955 39.1226C17.1372 39.1226 14.7336 37.4986 13.4993 35.1599Z" fill="black"/>
<path d="M21.6846 20.8681H18.1116C19.151 19.309 19.9306 17.8149 19.9306 16.5806C19.9956 17.8149 20.7101 19.244 21.6846 20.8681Z" fill="black"/>
<path d="M25.3225 26.4548H14.4737C14.9934 25.4803 15.643 24.5709 16.2277 23.6614H23.5685C24.1531 24.5709 24.7378 25.5453 25.3225 26.4548Z" fill="black"/>
<path d="M27.2714 31.8468C27.2714 31.9767 27.2714 32.1716 27.2714 32.3015H12.7197C12.7197 32.1716 12.7197 31.9767 12.7197 31.8468C12.7197 31.522 12.7197 31.1972 12.7847 30.8724C12.7847 30.7424 12.7847 30.6775 12.8496 30.5476C12.8496 30.4826 12.8496 30.4176 12.8496 30.3527L12.9146 29.9629V29.8979C12.9796 29.6381 13.0445 29.4432 13.1095 29.1833H26.7517C26.8166 29.4432 26.9465 29.703 27.0115 29.9629L27.0765 30.3527C27.2064 30.8724 27.2714 31.3921 27.2714 31.8468Z" fill="black"/>
<defs>
<linearGradient id="paint0_linear" x1="31.4757" y1="32.2154" x2="8.51709" y2="9.25683" gradientUnits="userSpaceOnUse">
<stop stop-color="#FFAF00"/>
<stop offset="1" stop-color="#FFDC00"/>
</linearGradient>
</defs>
</svg>
