<svg width="16" height="10" viewBox="0 0 16 10" fill="none" xmlns="http://www.w3.org/2000/svg">
<path d="M13.7076 0.407051L7.98362 6.13105L2.25962 0.407051C2.00815 0.164173 1.67134 0.029781 1.32175 0.0328189C0.972152 0.0358568 0.637735 0.176082 0.390524 0.423293C0.143314 0.670504 0.0030883 1.00492 5.04035e-05 1.35452C-0.00298749 1.70411 0.131405 2.04091 0.374282 2.29238L7.04095 8.95905C7.29099 9.20901 7.63006 9.34943 7.98362 9.34943C8.33717 9.34943 8.67624 9.20901 8.92628 8.95905L15.5929 2.29238C15.7203 2.16939 15.8219 2.02226 15.8918 1.85959C15.9616 1.69692 15.9984 1.52196 15.9999 1.34492C16.0015 1.16788 15.9678 0.992307 15.9007 0.828445C15.8337 0.664584 15.7347 0.515715 15.6095 0.390524C15.4843 0.265334 15.3354 0.16633 15.1716 0.0992887C15.0077 0.0322476 14.8321 -0.00148808 14.6551 5.03423e-05C14.478 0.00158876 14.3031 0.0383705 14.1404 0.108249C13.9777 0.178128 13.8306 0.279704 13.7076 0.407051Z" fill="black"/>
</svg>
