<svg width="16" height="10" viewBox="0 0 16 10" fill="none" xmlns="http://www.w3.org/2000/svg">
<path d="M13.7076 9.59295L7.98362 3.86895L2.25962 9.59295C2.00815 9.83583 1.67134 9.97022 1.32175 9.96718C0.972152 9.96414 0.637735 9.82392 0.390524 9.57671C0.143314 9.3295 0.0030883 8.99508 5.04035e-05 8.64548C-0.00298749 8.29589 0.131405 7.95909 0.374282 7.70762L7.04095 1.04095C7.29099 0.79099 7.63006 0.650569 7.98362 0.650569C8.33717 0.650569 8.67624 0.79099 8.92628 1.04095L15.5929 7.70762C15.7203 7.83061 15.8219 7.97774 15.8918 8.14041C15.9616 8.30308 15.9984 8.47804 15.9999 8.65508C16.0015 8.83212 15.9678 9.00769 15.9007 9.17155C15.8337 9.33542 15.7347 9.48429 15.6095 9.60948C15.4843 9.73467 15.3354 9.83367 15.1716 9.90071C15.0077 9.96775 14.8321 10.0015 14.6551 9.99995C14.478 9.99841 14.3031 9.96163 14.1404 9.89175C13.9777 9.82187 13.8306 9.7203 13.7076 9.59295Z" fill="black"/>
</svg>
